<?xml version="1.0" encoding="UTF-8" standalone="no"?>
<svg
   xmlns:dc="http://purl.org/dc/elements/1.1/"
   xmlns:cc="http://creativecommons.org/ns#"
   xmlns:rdf="http://www.w3.org/1999/02/22-rdf-syntax-ns#"
   xmlns:svg="http://www.w3.org/2000/svg"
   xmlns="http://www.w3.org/2000/svg"
   xmlns:sodipodi="http://sodipodi.sourceforge.net/DTD/sodipodi-0.dtd"
   xmlns:inkscape="http://www.inkscape.org/namespaces/inkscape"
   width="300"
   height="300"
   viewBox="0 0 79.374998 79.375002"
   version="1.1"
   id="svg8"
   inkscape:version="1.0.2-2 (e86c870879, 2021-01-15)"
   sodipodi:docname="logo.svg">
  <defs
     id="defs2">
    <inkscape:path-effect
       effect="mirror_symmetry"
       start_point="114.32015,96.276507"
       end_point="114.32015,138.72958"
       center_point="114.32015,117.50305"
       id="path-effect1505"
       is_visible="true"
       lpeversion="1"
       mode="free"
       discard_orig_path="false"
       fuse_paths="true"
       oposite_fuse="false"
       split_items="false" />
    <inkscape:path-effect
       effect="mirror_symmetry"
       start_point="114.32015,96.276507"
       end_point="114.32015,138.72958"
       center_point="114.32015,117.50305"
       id="path-effect1465"
       is_visible="true"
       lpeversion="1"
       mode="free"
       discard_orig_path="false"
       fuse_paths="false"
       oposite_fuse="false"
       split_items="false" />
    <inkscape:path-effect
       effect="envelope"
       id="path-effect1430"
       is_visible="true"
       lpeversion="1"
       yy="true"
       xx="true"
       bendpath1="M 44.1532,-60.690525 H 83.040915"
       bendpath2="m 83.040915,-60.690525 v 44.221306"
       bendpath3="M 45.854093,-16.469219 H 81.52901"
       bendpath4="m 44.1532,-60.690525 v 44.221306"
       bendpath3-nodetypes="cc" />
    <clipPath
       clipPathUnits="userSpaceOnUse"
       id="clipPath1654">
      <circle
         style="opacity:1;fill:#c16e6d;fill-opacity:1;stroke:none;stroke-width:1.865;stroke-miterlimit:4;stroke-dasharray:none;stroke-opacity:1;stop-color:#000000"
         id="circle1656"
         cx="497.72662"
         cy="20.820469"
         r="107.72322"
         transform="rotate(18.572351)" />
    </clipPath>
    <clipPath
       clipPathUnits="userSpaceOnUse"
       id="clipPath1658">
      <circle
         style="opacity:1;fill:#c16e6d;fill-opacity:1;stroke:none;stroke-width:1.865;stroke-miterlimit:4;stroke-dasharray:none;stroke-opacity:1;stop-color:#000000"
         id="circle1660"
         cx="497.72662"
         cy="20.820469"
         r="107.72322"
         transform="rotate(18.572351)" />
    </clipPath>
  </defs>
  <sodipodi:namedview
     id="base"
     pagecolor="#ffffff"
     bordercolor="#666666"
     borderopacity="1.0"
     inkscape:pageopacity="0.0"
     inkscape:pageshadow="2"
     inkscape:zoom="1.4"
     inkscape:cx="77.543785"
     inkscape:cy="159.63232"
     inkscape:document-units="px"
     inkscape:current-layer="g1672"
     inkscape:document-rotation="0"
     showgrid="false"
     showguides="true"
     inkscape:guide-bbox="true"
     inkscape:lockguides="false"
     inkscape:snap-global="false"
     inkscape:window-width="1920"
     inkscape:window-height="1027"
     inkscape:window-x="-8"
     inkscape:window-y="-8"
     inkscape:window-maximized="1"
     units="px">
    <sodipodi:guide
       position="210,0"
       orientation="0,-793.70079"
       id="guide1424"
       inkscape:locked="false" />
  </sodipodi:namedview>
  <metadata
     id="metadata5">
    <rdf:RDF>
      <cc:Work
         rdf:about="">
        <dc:format>image/svg+xml</dc:format>
        <dc:type
           rdf:resource="http://purl.org/dc/dcmitype/StillImage" />
        <dc:title></dc:title>
      </cc:Work>
    </rdf:RDF>
  </metadata>
  <g
     inkscape:label="Layer 1"
     inkscape:groupmode="layer"
     id="layer1">
    <g
       id="g1672"
       transform="matrix(0.22370596,0.16955572,-0.16955572,0.22370596,35.711092,-3.3324781)"
       style="stroke-width:3.5625"
       inkscape:export-filename="E:\home\Downloads\g1672.png"
       inkscape:export-xdpi="125.99998"
       inkscape:export-ydpi="125.99998">
      <path
         style="opacity:1;fill:#3c2441;fill-opacity:1;stroke:none;stroke-width:6.64406;stroke-miterlimit:4;stroke-dasharray:none;stroke-opacity:1;stop-color:#000000"
         id="rect1608"
         width="358.71622"
         height="318.69086"
         x="246.93527"
         y="30.399879"
         transform="rotate(-52.815665,221.08336,515.73604)"
         clip-path="url(#clipPath1658)"
         sodipodi:type="rect"
         d="M 246.93527,30.399879 H 605.65149 V 349.09074 H 246.93527 Z"
         ry="0" />
      <path
         style="opacity:1;fill:#05cb4e;fill-opacity:1;stroke:none;stroke-width:6.64406;stroke-miterlimit:4;stroke-dasharray:none;stroke-opacity:1;stop-color:#000000"
         id="rect1612"
         width="274.09348"
         height="182.56677"
         x="303.31696"
         y="62.313961"
         transform="rotate(-52.815665,221.08336,515.73604)"
         clip-path="url(#clipPath1654)"
         sodipodi:type="rect"
         d="M 303.31696,62.313961 H 577.41043 V 244.88073 H 303.31696 Z"
         inkscape:export-filename="C:\Users\usr\rect1613.png"
         inkscape:export-xdpi="125.99998"
         inkscape:export-ydpi="125.99998" />
    </g>
    <g
       id="g1600"
       transform="matrix(0.27799865,0.0388619,-0.0388619,0.27799865,8.2013317,17.705852)"
       style="stroke-width:3.5625"
       inkscape:export-filename="E:\home\Downloads\g1672.png"
       inkscape:export-xdpi="125.99998"
       inkscape:export-ydpi="125.99998">
      <path
         id="path1526"
         style="fill:#3c2441;fill-opacity:1;stroke-width:3.29902;stop-color:#000000"
         d="M 66.516683,-15.884638 C 58.526631,-14.645058 52.792604,-8.5419382 51.707682,1.0477125 50.407489,12.540059 56.034007,19.692904 61.94941,24.485355 L 63.886572,7.3627891 c 2.888115,-0.028641 6.275727,0.8547288 9.385616,1.7980553 C 74.984296,7.0739748 78.801611,3.8322695 82.616043,2.53555 L 105.3545,5.1080645 95.91789,84.871626 c -1.21925,0.820329 -2.017032,2.134441 -2.182268,3.594649 -0.124159,1.098345 0.118259,2.206927 0.689534,3.153195 -0.915615,-0.586527 -1.741837,-0.834321 -2.04702,-0.114513 -0.577331,1.361566 1.393174,2.136945 1.668399,3.317279 0.275215,1.180345 -3.405665,30.962364 -3.519765,31.970944 -0.114036,1.00861 -2.556371,0.92361 -2.261906,3.25532 0.178921,1.41677 4.310476,1.96401 5.442174,2.08765 1.130671,0.13279 5.279619,0.52191 5.770541,-0.81909 0.807951,-2.207 -1.591561,-2.66977 -1.477455,-3.67837 0.114196,-1.0086 3.179886,-30.860201 3.711866,-31.949218 0.53195,-1.08902 2.62588,-1.404555 2.36736,-2.860699 -0.11793,-0.664179 -0.77552,-0.712278 -1.61098,-0.477542 0.68274,-0.771416 1.11119,-1.734486 1.227,-2.758112 0.15271,-1.350793 -0.24985,-2.705673 -1.11538,-3.753928 l 9.4605,-79.9746593 22.64143,2.5615428 c 3.49508,2.1390225 5.7394,6.0912225 6.95891,8.5418145 3.16801,-0.219582 6.581,-0.322824 9.35604,0.300556 l -1.93153,17.072832 c 6.83657,-3.349743 13.91888,-9.064767 15.21909,-20.557121 1.08492,-9.5896417 -3.14067,-16.8195503 -10.65183,-19.8128571 L 152.35247,5.2863957 65.236533,-4.5694849 Z"
         sodipodi:nodetypes="cccccccccccscscscssccccccccscccc" />
      <path
         style="opacity:1;fill:#3136c6;fill-opacity:1;stroke:none;stroke-width:0.942577px;stroke-linecap:butt;stroke-linejoin:miter;stroke-opacity:0"
         d="M 93.8391,11.352494 C 91.95123,16.418758 91.03591,22.704645 83.20516,26.223843 72.6983,30.728492 62.4546,34.854372 60.43209,46.965282 c 0.66146,3.40179 1.88988,5.57515 3.2128,6.61459 0.14174,-7.70127 4.7247,-15.1663 8.59896,-18.09561 3.87425,-2.92932 10.17334,-6.74151 13.19715,-7.402964 -6.33111,4.724704 -14.99254,10.048794 -17.92186,26.065534 0.37798,3.96875 2.55134,7.41779 5.10268,9.78014 -2.52526,-11.50011 1.91428,-24.93019 10.53609,-30.33259 -9.80305,17.54302 -5.72802,34.88136 3.44903,39.82924 -5.62614,-6.77469 -7.67126,-22.76508 -0.75595,-27.49777 -3.48856,10.21856 -0.25301,21.12226 9.16592,26.83631 4.15774,2.45684 7.87531,5.33906 6.89807,11.52827 -0.28348,1.79539 -2.07887,3.3073 -4.34673,4.15774 5.03979,1.11912 9.06428,-0.32668 12.20234,-3.19903 7.26126,5.253345 10.39919,-25.17715 8.68085,-31.66927 0.85045,0.56696 1.22842,1.6064 1.32292,2.36235 0.75595,-5.00819 -0.0893,-6.88821 -3.28437,-9.83688 -1.94327,-1.79342 -3.58602,-6.11165 -3.11355,-7.90704 1.09479,4.78399 9.50694,12.76288 14.3785,15.24515 3.8189,-0.12414 6.10967,-2.55805 6.10967,-2.55805 -5.85891,0.93432 -19.06467,-10.6486 -20.70877,-16.26363 5.10743,3.98678 14.79202,7.0822 16.96538,7.61406 2.88542,-0.76266 5.46247,-2.45406 6.40741,-4.24945 -6.26635,1.59389 -21.70806,-2.57367 -25.97507,-7.42704 6.82971,4.28162 18.04324,3.06706 20.65458,1.85386 1.52541,-1.60448 1.60165,-3.12977 1.22842,-4.441218 -3.9735,4.443188 -12.44705,5.487398 -20.31622,0.566958 -8.80002,-5.502478 -3.00187,-16.488424 -6.93171,-16.583045 0.18146,-0.912941 0.37768,-1.178028 -0.3836,-1.577902 -2.53078,-1.3293499 -8.79702,-1.1893549 -10.96593,0.974499 z"
         id="path1477"
         sodipodi:nodetypes="ccccscccccccsccccscccccccccscsc" />
      <path
         style="opacity:1;fill:#f9ca35;fill-opacity:1;stroke:none;stroke-width:0.942577px;stroke-linecap:butt;stroke-linejoin:miter;stroke-opacity:1"
         d="m 84.366973,-2.8081279 c 3.779762,-0.4724703 9.265079,3.06143262 11.15573,3.72627547 0.449366,-0.32773869 0.481209,-1.12102641 0.717653,-2.01967307 0.138051,-0.5246852 1.892652,-0.4940782 2.958482,-0.3122864 0.852462,0.1453994 1.055422,0.3298862 1.182232,0.83024324 0,0 -0.37171,-0.040508 -0.532278,-0.0334344 -0.383745,0.86851335 0.05312,1.63584386 -1.221129,4.23056096 -0.692284,0.5768364 -2.38984,0.672952 -3.294592,-0.2317997 -3.45456,0.1227957 -6.663265,1.370621 -7.324722,-0.283025 0.183598,5.7128627 3.058723,16.6725208 3.965968,25.4451858 0.476128,0.81622 2.88485,2.705934 3.829791,1.6665 0.944941,-1.039434 1.597426,-5.180814 1.08668,-6.331102 -0.969299,-0.748499 -1.930759,-1.531331 -2.018765,-3.563097 3.307292,-1.889881 7.181547,-7.843006 9.638397,-7.748512 1.85647,1.155874 -0.65903,9.070073 -2.94553,10.866816 -1.40176,1.101514 -1.761981,0.316891 -2.251648,1.133928 -0.566962,1.700893 -1.181174,5.055431 -0.14174,6.283854 1.039438,1.228423 2.600788,1.675999 4.868648,1.014541 3.91221,-7.715475 11.52283,-12.145937 14.60061,-19.548428 -1.81453,-0.712945 -0.21532,-5.4947372 -1.99154,-6.055934 -1.24936,0.050383 -2.50894,-0.3286282 -2.66577,-0.9434178 -0.1666,-1.438552 1.12412,-3.4741814 0.56103,-4.2747808 l -0.54126,-0.0807823 c 0.0897,-0.86671093 1.10642,-0.69640856 1.92147,-0.50151974 1.04803,0.25059691 1.79188,0.23214356 2.35544,0.89462374 0.1991,1.0297959 0.16852,1.4323514 -0.0223,2.3250897 2.87347,1.5236795 6.77092,6.3394052 6.76727,8.5773252 -1.40988,5.768885 -11.48323,17.699473 -14.13612,21.021061 -2.87682,3.601958 -3.14337,3.622886 -2.58485,5.404376 1.23744,0.891521 4.43977,2.105938 3.73733,6.086292 -0.33775,1.913931 -2.67657,2.747909 -3.10536,2.848804 0.60537,0.807161 -0.12622,2.320548 3.60629,8.226426 5.57138,2.978814 22.27484,1.074065 31.75671,6.556447 11.66264,6.743299 19.4982,13.948116 22.19661,39.291501 0.95884,0.79795 3.12087,3.74093 4.91647,6.50175 -2.03999,11.64435 -7.74451,24.36689 -10.58431,36.78687 1.49202,2.02788 2.64339,3.36577 4.32345,3.90519 0.91295,0.30388 1.67968,0.31114 2.55071,0.58169 0.74245,0.21712 0.50579,1.19953 -0.032,1.29588 -0.39951,0.18807 -0.78275,0.26814 -1.2414,0.25554 -0.2456,0.56329 -1.19711,0.95698 -2.10029,1.26892 -1.29114,0.43537 -3.60518,0.15184 -4.54058,-0.54996 -0.6466,-1.22419 -0.48515,-2.45184 -2.15869,-2.84603 -1.01226,0.0299 -1.73961,-1.71811 -1.81691,-2.44374 0.47786,-1.08293 0.75177,-2.03179 0.75177,-2.03179 6.09194,-14.02074 -0.27217,-25.45348 5.64176,-33.04224 -11.02412,8.22521 -20.83895,14.88324 -31.35047,24.93774 0,0 -4.65057,3.55763 -6.21762,5.42727 -0.48644,0.58037 -1.55742,1.60669 -1.87367,1.17209 -0.40513,-1.02404 0.16479,-1.68575 1.02322,-2.34418 0.93073,-1.63786 0.90735,-4.18039 1.98438,-5.72598 0.52347,-0.75121 1.5738,-1.17832 1.91182,-2.02925 0.35624,-1.53045 -0.66848,-5.69476 1.67895,-5.62477 0.71964,0.0464 3.96646,0.80549 4.7247,0.75596 6.32855,-0.41338 12.67312,-20.82973 20.22173,-20.59971 -7.71332,-3.87909 -15.56105,-5.48844 -20.12723,-12.567701 -5.95759,-0.06926 -17.01683,-2.969625 -18.8043,-11.433782 C 112.42276,69.35351 105.89355,68.36409 98.520928,57.699504 94.907952,52.473287 91.292284,51.245643 89.832783,45.557913 88.228986,45.41728 86.778786,44.55875 86.294667,43.233227 85.601501,41.335329 86.265683,39.276389 88.022954,37.42328 88.454933,34.590817 85.498702,29.244823 85.102539,27.226325 83.632525,19.736427 79.938022,3.8935493 84.366973,-2.8081279 Z"
         id="path1479"
         sodipodi:nodetypes="ccssccccccscccscsccccccscccscsccscccccccccccscssccsccsccsscacsc" />
      <path
         style="fill:#d6a406;fill-opacity:1;stroke:none;stroke-width:0.94258px;stroke-linecap:butt;stroke-linejoin:miter;stroke-opacity:1"
         d="m 116.74921,61.733905 c 3.19401,1.923464 5.80044,0.846214 7.4741,3.714038 -2.33212,0.105766 -5.40926,-0.702014 -7.4741,-3.714038 z"
         id="path1563"
         sodipodi:nodetypes="ccc" />
      <path
         style="fill:#3136c6;fill-opacity:1;stroke:none;stroke-width:0.942577px;stroke-linecap:butt;stroke-linejoin:miter;stroke-opacity:1"
         d="m 112.88356,100.63458 c 1.40513,0.75229 3.02563,0.88269 3.83022,0.88137 -1.74631,-4.668421 -1.53563,-12.090143 0.53493,-15.969472 l -0.3766,-0.673121 c -3.35468,4.711113 -4.51527,12.72132 -3.98855,15.761223 z"
         id="path1565"
         sodipodi:nodetypes="ccccc" />
      <path
         style="fill:#3136c6;fill-opacity:1;stroke:none;stroke-width:0.942577px;stroke-linecap:butt;stroke-linejoin:miter;stroke-opacity:1"
         d="m 122.72362,103.12378 c 2.18785,0.98839 5.52519,1.72756 6.17218,1.22669 -5.74416,-3.72632 -10.83085,-12.813811 -11.2377,-19.13695 l -0.68596,-0.444327 c -0.97299,7.299381 3.25269,15.790317 5.75148,18.354587 z"
         id="path1569"
         sodipodi:nodetypes="ccccc" />
      <path
         style="fill:#3136c6;fill-opacity:1;stroke:none;stroke-width:0.942577px;stroke-linecap:butt;stroke-linejoin:miter;stroke-opacity:1"
         d="m 155.45077,54.404986 c 1.03216,1.160338 1.42616,2.593932 1.55041,3.314272 -5.31602,-0.958901 -13.30074,0.190179 -17.16813,2.545543 l -0.78599,-0.249972 c 4.56538,-3.612396 13.03745,-5.687878 16.40371,-5.609843 z"
         id="path1571"
         sodipodi:nodetypes="ccccc" />
      <path
         style="fill:#3136c6;fill-opacity:1;stroke:none;stroke-width:0.942577px;stroke-linecap:butt;stroke-linejoin:miter;stroke-opacity:1"
         d="m 159.67684,62.890437 c 1.40948,1.830376 2.72929,4.721886 2.28926,5.365812 -4.92274,-4.659204 -15.53441,-8.03609 -22.42879,-7.581922 l -0.58715,-0.556482 c 7.73347,-1.815573 17.56621,0.867849 20.72668,2.772592 z"
         id="path1573"
         sodipodi:nodetypes="ccccc" />
      <path
         style="fill:#d6a406;fill-opacity:1;stroke:none;stroke-width:0.942577px;stroke-linecap:butt;stroke-linejoin:miter;stroke-opacity:1"
         d="m 166.40402,101.6756 -0.23624,-2.504098 c 0.5559,-0.231624 -16.98906,-22.875315 -24.30356,-25.197079 l -1.11477,1.69238 c 10.73244,6.364593 18.27953,17.287219 25.65457,26.008797 z"
         id="path1577"
         sodipodi:nodetypes="ccccc" />
      <path
         style="fill:#3136c6;fill-opacity:1;stroke:none;stroke-width:0.942577px;stroke-linecap:butt;stroke-linejoin:miter;stroke-opacity:1"
         d="m 124.67817,75.801657 c 3.15002,-1.719758 6.31698,-2.721826 9.29068,-4.373876 1.5034,-0.835217 4.1866,-2.106707 4.71062,-4.777445 0.24625,-1.25505 0.2737,-4.989356 0.0888,-6.514345 l 1.03903,0.311302 c 0,1.002263 0.53689,3.694612 -0.0921,6.503722 0.94355,1.662329 2.93661,6.806572 2.15367,9.406431 -1.87088,-1.269532 -5.62817,-3.5265 -7.96678,-2.991963 -2.67269,0.935445 -7.8688,3.176902 -9.84438,4.32217 -2.68225,1.554925 -5.75255,5.823437 -7.21911,9.208351 l -0.58464,-1.002261 c 1.42112,-3.528461 5.44506,-8.465589 8.42426,-10.092086 z"
         id="path1567"
         sodipodi:nodetypes="ssscccccsccs" />
      <path
         style="fill:#d6a406;fill-opacity:1;stroke:none;stroke-width:0.942577px;stroke-linecap:butt;stroke-linejoin:miter;stroke-opacity:1"
         d="m 154.21428,107.34524 c 5.94887,3.15712 5.32317,2.70883 7.98475,4.06324 l -1.91993,1.40595 c -0.38529,0.22017 -8.8459,-4.67644 -8.61615,-4.76049 0.84572,-0.63788 2.35705,-0.7531 2.55133,-0.7087 z"
         id="path1579"
         sodipodi:nodetypes="ccccc" />
      <path
         style="fill:#d6a406;fill-opacity:1;stroke:none;stroke-width:0.94258px;stroke-linecap:butt;stroke-linejoin:miter;stroke-opacity:1"
         d="m 96.060568,41.426393 c 0.345831,2.466904 -2.747334,5.813769 -5.88933,5.267443 -0.09717,-0.236341 -0.274738,-0.893014 -0.339511,-1.133763 2.190481,0.36688 4.53816,-1.216612 6.228841,-4.13368 z"
         id="path1583"
         sodipodi:nodetypes="cccc" />
      <path
         style="fill:#d6a406;fill-opacity:1;stroke:none;stroke-width:0.94258px;stroke-linecap:butt;stroke-linejoin:miter;stroke-opacity:1"
         d="m 109.296,48.784813 c -0.0687,-0.418942 -0.18717,-0.956073 -0.35028,-1.169946 -2.66542,0.283288 -5.40838,-1.788617 -6.70372,-4.626583 0.007,4.778627 4.92217,6.315022 7.054,5.796529 z"
         id="path1585"
         sodipodi:nodetypes="cccc" />
    </g>
  </g>
</svg>
